# xmcd
#
# Track frame offsets: 
#        150
#        11724
#        24461
#        41054
#        53638
#        64371
#        79773
#        89718
#        100306
#        110430
#        127135
#        139306
#        157972
#        172016
#        183999
#        194023
#        205598
#        220010
#        233870
#        244650
#        253722
#        268230
#        280648
#        296187
#
# Disc length: 4100 seconds
#
# Revision: 0
# Processed by: cddbd v1.5.1PL0 Copyright (c) Steve Scherf et al.
# Submitted via: ExactAudioCopy v0.95a3
#
DISCID=6f100218
DTITLE=Various Artist - Simply Country - Disc 2
DYEAR=1900
DGENRE=
TTITLE0=Various Artist - Red Sovine-Woman Behind the Man Behind The W
TTITLE0=heel
TTITLE1=Various Artist - Bob Willis-Take Me Back to Tulsa
TTITLE2=Various Artist - Mac Wiseman-18 Wheels A Hummin
TTITLE3=Various Artist - Kenny Rogers-Me and Bobby Mcgee
TTITLE4=Various Artist - Willie Nelson-On the Road Again
TTITLE5=Various Artist - The Buckeroos-Rollin Back to Tennessee
TTITLE6=Various Artist - Hank Locklin-Flying South
TTITLE7=Various Artist - Faron Young-King of the Road
TTITLE8=Various Artist - Dave Dudley-Six Days on the Road
TTITLE9=Various Artist - Johnny Cash-City of New Orleans
TTITLE10=Various Artist - Don Williams-Follow Me Back to Louisville
TTITLE11=Various Artist - Bobby Bare-The Jogger
TTITLE12=Various Artist - Jim Welsh-Lights on the Hill
TTITLE13=Various Artist - Nev Nichols-Two Beers Away
TTITLE14=Various Artist - The Wayfarers-Rolling and Roar
TTITLE15=Various Artist - Dave Reynolds-Old Queensland Special
TTITLE16=Various Artist - John Mcsweeney-Moving Kind
TTITLE17=Various Artist - Dave Reynolds-Highway Fever
TTITLE18=Various Artist - The Wayfarers-Danger Road Train
TTITLE19=Various Artist - Nev Nichols-The Men Who Dare to Drive The I
TTITLE19=nterstate
TTITLE20=Various Artist - John Mcsweeney-My Diesel Friend
TTITLE21=Various Artist - Jim Welsh-Home Cooking
TTITLE22=Various Artist - The Wayfarers-Road Train Blues
TTITLE23=Various Artist - Dave Reynolds-Its A Trucking Life
EXTD=
EXTT0=
EXTT1=
EXTT2=
EXTT3=
EXTT4=
EXTT5=
EXTT6=
EXTT7=
EXTT8=
EXTT9=
EXTT10=
EXTT11=
EXTT12=
EXTT13=
EXTT14=
EXTT15=
EXTT16=
EXTT17=
EXTT18=
EXTT19=
EXTT20=
EXTT21=
EXTT22=
EXTT23=
PLAYORDER=
